<?xml version="1.0" encoding="utf-8"?>
<!-- Generator: Adobe Illustrator 26.3.1, SVG Export Plug-In . SVG Version: 6.00 Build 0)  -->
<svg version="1.1" id="Layer_1" xmlns="http://www.w3.org/2000/svg" xmlns:xlink="http://www.w3.org/1999/xlink" x="0px" y="0px"
	 viewBox="0 0 93 93" style="enable-background:new 0 0 93 93;" xml:space="preserve">
<style type="text/css">
	.st0{fill:#FC8B9D;}
</style>
<g>
	<g>
		<path class="st0" d="M54.82,28.12c3.42-3.19,6.87-6.32,7.42-10.72c0.09-0.7-0.43-3.63-1.65-5.22c-1.87-2.44-4.71-4.7-4.67-4.67
			c1.23,0.91-6.25-3.7-11.27-4.67C38.34,1.62,33.1,1.19,27.8,3.96c-5.46,2.85-7.62,8.5-9.82,14.55c-2.03,5.58-0.25,9.32,3.02,12.92
			c2.01,2.21,4.4,4.4,7.7,6.05c0,0-0.69,3.93,0,5.5c0.55,1.24,2.64,0.77,3.85,0.82c1.36,0.06,2.94,0.16,4.12-1.1
			c1.84-1.97,2.11-4.66,3.57-6.05C45.2,31.97,50.7,31.97,54.82,28.12z M59.13,19.11c-0.55,1.39-1.46,2.47-2.73,3.27
			c-0.39,0.25-0.73,0.28-1.15,0.06c-1.26-0.65-2.62-1-4.04-0.95c-2.73,0.1-4.71,1.49-6.14,3.74c-0.43,0.67-0.29,1.38,0.29,1.76
			c0.58,0.38,1.25,0.22,1.73-0.45c0.33-0.47,0.68-0.92,1.1-1.32c1.46-1.39,3.77-1.72,5.58-0.81c0.53,0.27,0.34,0.55,0.11,0.87
			c-1.81,2.46-4.25,3.93-7.22,4.56c-0.16,0.03-0.32,0.05-0.47,0.09c-1.03,0.25-1.84,0.27-2.53-0.87c-0.77-1.27-2.19-1.67-3.67-1.66
			c-0.8,0.01-1.32,0.51-1.32,1.2c0,0.67,0.46,1.15,1.24,1.21c0.68,0.06,1.32,0.15,1.83,0.66c0.37,0.38,0.43,0.69-0.05,1.07
			c-3.11,2.47-5.2,5.65-6.35,9.44c-0.15,0.5-0.4,0.73-0.93,0.7s-1.05-0.01-1.58-0.01l0,0c-0.46,0-0.92,0-1.38,0
			c-0.89,0-0.93-0.05-0.84-0.95c0.15-1.51,0.32-3.01,0.48-4.52c0.11-0.98,0.06-1.05-0.92-1.16c-1.41-0.16-2.75-0.51-3.9-1.4
			c-0.66-0.51-1.11-1.15-1.32-1.96c-0.12-0.47-0.02-0.78,0.46-0.99c3.14-1.41,6.34-1.02,8.49,1.62c0.51,0.63,1.21,0.7,1.75,0.24
			c0.54-0.45,0.57-1.12,0.09-1.78c-1.9-2.62-5.62-3.87-9.07-3.07c-0.96,0.23-1.89,0.56-2.77,1.02c-0.41,0.21-0.75,0.21-1.15-0.04
			c-3.31-2.03-4.27-6.63-2.03-9.77c0.47-0.66,2.48-1.41,3.22-1.2c0.99,0.28,1.7,2.22,1.18,3.24c-0.19,0.37-0.48,0.66-0.75,0.98
			c-0.48,0.56-0.48,1.2-0.03,1.68c0.46,0.49,1.17,0.53,1.73,0.01c1.43-1.34,2.1-2.92,1.51-4.9c-0.06-0.18-0.25-0.41-0.05-0.57
			c0.18-0.14,0.39,0.04,0.57,0.14c0.93,0.51,1.63,1.25,2.15,2.17c0.13,0.24,0.24,0.5,0.37,0.74c0.35,0.62,0.98,0.86,1.57,0.61
			c0.61-0.26,0.88-0.93,0.61-1.62c-0.77-1.91-2.05-3.35-3.93-4.23c-1.77-0.83-3.63-0.88-5.53-0.68c-0.95,0.1-1.12-0.05-0.93-0.99
			c0.64-3.28,2.56-5.51,5.64-6.77c0.64-0.26,0.76-0.17,0.76,0.54c0,1.79,0.75,3.23,2.02,4.44c0.69,0.65,1.43,0.7,1.94,0.15
			c0.49-0.53,0.43-1.24-0.24-1.87c-1.08-1.04-1.54-2.25-1.14-3.73c0.16-0.6,0.49-1.06,1-1.43c2.96-2.1,7.16-2.11,10.16-0.01
			c0.79,0.55,0.92,0.98,0.57,1.87c-0.19,0.51-0.56,0.89-0.92,1.27c-0.53,0.56-0.56,1.24-0.11,1.73c0.46,0.49,1.21,0.49,1.79-0.02
			c1.13-0.98,1.81-2.2,1.85-3.7c0.02-0.68,0.32-0.88,0.93-0.87c2.1,0.03,3.97,0.66,5.58,2.02c0.55,0.46,0.53,0.59-0.13,0.87
			c-2.04,0.85-3.65,2.18-4.71,4.14c-0.21,0.39-0.47,0.47-0.89,0.43c-1.91-0.17-3.4,0.56-4.43,2.18c-0.45,0.72-0.32,1.43,0.27,1.82
			c0.59,0.38,1.27,0.2,1.76-0.52c0.39-0.58,0.88-0.99,1.6-1.06c0.43-0.04,0.64,0.13,0.62,0.59c-0.03,0.64-0.05,1.28-0.03,1.93
			c0.02,0.81,0.5,1.33,1.18,1.33c0.69,0,1.14-0.51,1.19-1.32c0.03-0.62,0.05-1.24,0.12-1.85c0.37-3.01,2.6-5.33,5.59-5.84
			c0.35-0.06,0.68-0.02,1.01,0.12c1.71,0.71,2.94,1.91,3.69,3.61c0.24,0.56,0.12,0.97-0.32,1.34c-0.83,0.7-1.77,0.64-2.74,0.38
			c-0.45-0.12-0.82-0.39-1.22-0.63c-0.65-0.39-1.33-0.27-1.7,0.28c-0.36,0.53-0.24,1.28,0.34,1.71c1.55,1.12,3.24,1.57,5.14,1.08
			c0.23-0.06,0.5-0.31,0.7-0.08C59.42,18.61,59.22,18.88,59.13,19.11z"/>
		<path class="st0" d="M37.62,8.9c-0.72,0.25-0.96,0.9-0.65,1.82c0.56,1.68,0.2,2.5-1.37,2.84c-0.02,0-0.04,0.01-0.07,0.02
			c-0.93,0.36-1.16,1.3-0.49,2.04c0.17,0.19,0.36,0.35,0.54,0.53c1.93,2.01,1.77,5.02-0.35,6.81c-0.62,0.52-1.35,0.86-2.05,1.25
			c-0.63,0.35-0.83,0.99-0.55,1.58c0.28,0.58,0.92,0.85,1.57,0.57c4.7-1.97,6.52-6.4,4.11-10.6c-0.24-0.42-0.19-0.67,0.16-0.99
			c0.83-0.74,1.2-1.71,1.2-2.76c-0.01-0.91-0.22-1.7-0.58-2.45C38.81,8.95,38.21,8.7,37.62,8.9z"/>
	</g>
	<path class="st0" d="M49.05,42.97"/>
</g>
<path class="st0" d="M10.75,81.13c-0.03,0-0.06,0-0.09,0c0,3.11-0.02,6.21,0.02,9.32c0.01,0.82-0.08,2,1.07,1.99
	c1.16-0.01,1-1.21,1.01-2.02c0.04-4.04,0.04-8.08,0.04-12.12c0-4.84-0.04-4.74,4.39-3.18c2.03,0.71,2.79,1.82,2.73,3.93
	c-0.12,3.72-0.04,7.46,0.02,11.18c0.01,0.89-0.07,2.17,1.2,2.13c1.17-0.03,0.92-1.26,0.93-2.05c0.04-3.65,0.09-7.3,0-10.95
	c-0.05-2.13,0.81-2.88,2.92-2.8c3.6,0.13,4.09,0.34,4.13,2.89c0.05,3.65,0.01,7.3,0.05,10.95c0.01,0.73-0.15,1.87,0.85,1.9
	c1.22,0.04,1-1.2,1.01-1.97c0.05-3.42,0.01-6.83,0.04-10.25c0.02-3.04,0.34-3.39,3.31-3.41c3.81-0.03,7.61-0.04,11.42,0
	c8.53,0.11,14.17,4.9,15.78,13.26c0.17,0.9,0.03,2.5,1.32,2.3c1.17-0.18,0.67-1.68,0.68-2.64c0-0.38-0.09-0.77-0.16-1.15
	c-1.49-7.64-8.36-13.51-16.15-13.65c-5.9-0.1-11.81,0.14-17.71-0.08c-5.93-0.23-12.03-0.07-16.86-4.66
	c-1.33-1.27-1.9,0.07-1.92,1.29C10.71,74.61,10.75,77.87,10.75,81.13z"/>
<path class="st0" d="M72.85,90.68c-0.19-0.98-0.41-2.12-0.63-3.26c-2.63-13.43-13.03-22.4-26.57-21.97
	c-5.58,0.18-11.18,0.12-16.77-0.02c-4.54-0.11-8.98-0.85-12.85-3.51c-1.08-0.74-2.02-1.68-3.04-2.51c-0.47-0.39-1-0.93-1.6-0.3
	c-0.52,0.55-0.24,1.18,0.15,1.69c0.28,0.37,0.64,0.68,0.97,0.99c3.88,3.62,8.6,5.08,13.77,5.51c7.05,0.58,14.12,0.15,21.18,0.37
	c7.86,0.25,14.23,3.44,18.67,10.1c2.64,3.96,3.93,8.4,4.6,13.06c0.11,0.75,0.09,1.73,1.19,1.65C72.83,92.42,72.8,91.56,72.85,90.68z
	"/>
<path class="st0" d="M82.06,90.55c-1.35-8.5-4.13-16.35-9.9-22.99c-2.88-3.32-6.68-5.56-9.69-8.69c-2.97-3.08-3-3.43-1.24-7.05
	c0.17-0.35,0.22-0.77,0.43-1.08c1.71-2.44,2.61-5.52,5.06-7.32c1.92-1.41,2.19-2.82,1.24-4.77c-1.62-3.35-2.31-6.85-2.11-10.6
	c0.14-2.61,0.51-5.34-0.49-7.85c-0.83-2.09-0.5-3.55,1.38-4.76c1.77-1.15,1.81-2.36,0.27-3.92C57.3,1.76,45.6-1.42,32.39,1.64
	c-13.36,3.1-21.43,14.4-21.41,29.66c-0.3,4.28,0.67,8.98,2.6,13.45c3.41,7.91,9.18,12.64,18.06,13.31
	C36.77,58.44,41.89,58.2,47,58.4c12.69,0.49,22.21,6.07,28.22,17.43c2.5,4.73,4.05,9.73,4.82,15c0.11,0.74,0.18,1.77,1.24,1.63
	C82.34,92.31,82.17,91.28,82.06,90.55z M54.79,55.95c-7.03-6.19-9.47-14.18-8.89-23.24c0.02-0.36,0.05-0.71,0.08-1.07
	c-0.67,0.31-1.4,0.51-2.16,0.56c-0.15,2.89,0,5.88,0.44,8.97c0.65,4.58,2.52,8.78,5.43,12.46c0.6,0.76,1.88,1.46,1.42,2.45
	c-0.47,1.02-1.82,0.36-2.78,0.46c-0.3,0.03-0.62-0.03-1.35-0.09c-3.38,0.81-4.96-1.97-6.72-4.46c-2.02-2.86-3.51-6.1-4.52-9.52
	c-0.44,0.37-1.02,0.61-1.76,0.61c-0.14,0-0.27-0.01-0.4-0.03c1.14,3.72,2.9,7.34,5.38,10.85c0.35,0.49,0.98,0.96,0.73,1.62
	c-0.32,0.81-1.17,0.56-1.84,0.65c-3.71,0.48-6.48-0.79-8.82-3.86c-3.85-5.04-6.15-11.24-6.52-21.04c-0.89-0.54-1.64-1.28-2.19-2.15
	c-0.4,6.81,0.75,13.54,4.22,20.11c0.75,1.43,1.81,2.7,2.68,4.07c0.3,0.47,1.09,0.93,0.53,1.57c-0.39,0.44-1.03,0.04-1.52-0.13
	c-3.65-1.26-6.48-3.55-8.61-6.76c-6.71-10.12-6.3-25.69,1-35.34c2.15-2.84,4.88-4.99,8.31-6.36c0.34-0.26,0.7-0.48,1.08-0.67
	c1.15-1.01,2.65-1.64,4.26-1.64c0.07,0,0.14,0.01,0.2,0.01c1.03-0.69,2.26-1.1,3.57-1.1c0.18,0,0.35,0.01,0.53,0.03
	c2.34-0.63,4.75-0.77,6.42-0.2c1.47,0.5,0.84,1.14,0.19,1.69c0.25-0.03,0.51-0.05,0.77-0.05c0.84,0,1.65,0.17,2.39,0.48
	c3.07-1.42,6.45-0.95,9.87,1.41c1.25,0.86,0.78,1.38-0.1,2.08c-0.19,0.15-0.38,0.31-0.56,0.47c0.78,0.21,1.32,0.72,1.62,1.36
	c0.32-0.22,0.65-0.43,0.99-0.62c2.03-1.16,6.93,1.42,7.2,3.71c0.08,0.65-0.36,0.99-0.78,1.33c-12.53,10.37-14.38,28.5-6.94,41.24
	c0.31,0.52,0.5,1.11,0.93,2.07C56.74,57.68,55.77,56.81,54.79,55.95z M58.7,51.59c-1.3,0-1.41-1.28-1.7-2.2
	c-2.91-9.23-2.09-18.06,2.93-26.42c0.32-0.53,0.62-1.09,1.03-1.55c0.58-0.66,0.98-1.88,2.09-1.48c0.97,0.35,0.98,1.52,1.02,2.44
	c0.07,1.63,0.02,3.26,0.02,4.89c-0.43,3.97,0.28,7.73,2.01,11.31c0.66,1.38,0.57,2.45-0.98,3.27c-3.04,1.62-3.15,5.16-4.81,7.7
	C59.83,50.3,59.88,51.59,58.7,51.59z"/>
</svg>
