<?xml version="1.0" encoding="utf-8"?>
<!-- Generator: Adobe Illustrator 25.3.0, SVG Export Plug-In . SVG Version: 6.00 Build 0)  -->
<svg version="1.1" id="Layer_1" xmlns="http://www.w3.org/2000/svg" xmlns:xlink="http://www.w3.org/1999/xlink" x="0px" y="0px"
	 viewBox="0 0 86.52 89.27" style="enable-background:new 0 0 86.52 89.27;" xml:space="preserve">
<style type="text/css">
	.st0{fill:#A9A9A9;}
</style>
<g>
	<path class="st0" d="M82.61,20c1.06,0,1.98,0.39,2.75,1.16c0.77,0.77,1.16,1.69,1.16,2.75v4.64c0,1.06-0.39,1.98-1.16,2.75
		c-0.77,0.77-1.69,1.16-2.75,1.16H68.11l-3.62,24.35h14.35c1.06,0,1.98,0.39,2.75,1.16c0.77,0.77,1.16,1.69,1.16,2.75v4.64
		c0,1.06-0.39,1.98-1.16,2.75c-0.77,0.77-1.69,1.16-2.75,1.16H62.61l-2.46,16.96c-0.19,0.87-0.6,1.59-1.23,2.17
		c-0.63,0.58-1.43,0.87-2.39,0.87h-6.23c-0.87,0-1.62-0.31-2.25-0.94c-0.63-0.63-0.94-1.38-0.94-2.25v-0.29l2.46-16.52H29.71
		l-2.46,16.96c-0.19,0.87-0.6,1.59-1.23,2.17c-0.63,0.58-1.43,0.87-2.39,0.87h-6.23c-0.87,0-1.62-0.31-2.25-0.94
		c-0.63-0.63-0.94-1.38-0.94-2.25v-0.29l2.46-16.52H3.91c-1.06,0-1.98-0.39-2.75-1.16C0.38,67.34,0,66.42,0,65.36v-4.64
		c0-1.06,0.38-1.98,1.16-2.75c0.77-0.77,1.69-1.16,2.75-1.16h14.64l3.62-24.35H7.68c-1.06,0-1.98-0.39-2.75-1.16
		c-0.77-0.77-1.16-1.69-1.16-2.75v-4.64c0-1.06,0.38-1.98,1.16-2.75C5.7,20.39,6.62,20,7.68,20h16.38l2.61-16.96
		c0.19-0.87,0.6-1.59,1.23-2.17C28.52,0.29,29.27,0,30.14,0h6.23c0.87,0,1.62,0.31,2.25,0.94c0.63,0.63,0.94,1.38,0.94,2.25v0.43
		L37.1,20h19.85l2.61-16.96c0.19-0.87,0.6-1.59,1.23-2.17C61.42,0.29,62.17,0,63.04,0h6.23c0.87,0,1.62,0.31,2.25,0.94
		c0.63,0.63,0.94,1.38,0.94,2.25v0.43L70,20H82.61z M51.45,56.81l3.62-24.35H35.22l-3.62,24.35H51.45z"/>
</g>
</svg>
