<?xml version="1.0" encoding="utf-8"?>
<!-- Generator: Adobe Illustrator 25.3.0, SVG Export Plug-In . SVG Version: 6.00 Build 0)  -->
<svg version="1.1" id="Layer_1" xmlns="http://www.w3.org/2000/svg" xmlns:xlink="http://www.w3.org/1999/xlink" x="0px" y="0px"
	 viewBox="0 0 134 133" style="enable-background:new 0 0 134 133;" xml:space="preserve">
<style type="text/css">
	.st0{fill:#A9A9A9;}
	.st1{fill:#E2E2E2;}
</style>
<g>
	<path class="st0" d="M53.93,64H10.07C4.51,64,0,59.49,0,53.93V10.07C0,4.51,4.51,0,10.07,0h43.87C59.49,0,64,4.51,64,10.07v43.87
		C64,59.49,59.49,64,53.93,64z"/>
</g>
<g>
	<path class="st0" d="M53.93,133H10.07C4.51,133,0,128.49,0,122.93V79.07C0,73.51,4.51,69,10.07,69h43.87
		C59.49,69,64,73.51,64,79.07v43.87C64,128.49,59.49,133,53.93,133z"/>
</g>
<g>
	<path class="st0" d="M123.93,133H80.07C74.51,133,70,128.49,70,122.93V79.07C70,73.51,74.51,69,80.07,69h43.87
		c5.56,0,10.07,4.51,10.07,10.07v43.87C134,128.49,129.49,133,123.93,133z"/>
</g>
<g>
	<path class="st1" d="M123.93,64H80.07C74.51,64,70,59.49,70,53.93V10.07C70,4.51,74.51,0,80.07,0h43.87
		C129.49,0,134,4.51,134,10.07v43.87C134,59.49,129.49,64,123.93,64z"/>
</g>
</svg>
