<?xml version="1.0" encoding="utf-8"?>
<!-- Generator: Adobe Illustrator 26.3.1, SVG Export Plug-In . SVG Version: 6.00 Build 0)  -->
<svg version="1.1" id="Layer_1" xmlns="http://www.w3.org/2000/svg" xmlns:xlink="http://www.w3.org/1999/xlink" x="0px" y="0px"
	 viewBox="0 0 689.27 589.84" style="enable-background:new 0 0 689.27 589.84;" xml:space="preserve">
<style type="text/css">
	.st0{fill:#A9A9A9;}
</style>
<path class="st0" d="M0,20.62c0.43-1.32,0.85-2.65,1.29-3.97C5.11,5.24,16.21-1.47,28.36,0.28c11.1,1.6,19.7,11.21,20.31,22.75
	c0.1,1.99,0.09,3.98,0.09,5.97c0,168.87,0,337.74,0,506.62c0,1.62,0,3.25,0,5.41c1.83,0,3.41,0,4.99,0
	c203.01,0,406.02,0.01,609.03-0.03c10.69,0,18.96,3.97,23.84,13.66c7.91,15.7-2.86,34.06-20.4,35.03c-1.29,0.07-2.58,0.09-3.87,0.09
	c-211.8,0-423.6-0.01-635.4,0.06c-9.91,0-17.96-3.1-23.26-11.67c-1.69-2.73-2.5-6-3.71-9.02C0,386.31,0,203.47,0,20.62z"/>
<path class="st0" d="M250.63,279.85c-10.05,13.42-19.88,26.54-29.7,39.66c-34.26,45.76-68.51,91.53-102.78,137.28
	c-8.48,11.32-21.1,14.57-32.47,8.43c-13.18-7.12-16.81-23.81-7.64-36.25c12.09-16.41,24.4-32.66,36.61-48.97
	c36.58-48.86,73.14-97.72,109.74-146.56c9.35-12.48,22.8-14.73,35.79-6.11c3.03,2.01,6.04,4.03,9.05,6.06
	c39.54,26.61,79.1,53.21,118.59,79.9c2.12,1.43,3.31,1.11,5.12-0.33c54.31-43.33,108.67-86.6,163.01-129.88
	c22.18-17.66,44.32-35.37,66.54-52.98c14.75-11.69,35.38-5.21,39.65,12.56c2.52,10.48-1,19.11-9.42,25.79
	c-11.65,9.26-23.27,18.55-34.91,27.82c-69.74,55.55-139.49,111.09-209.23,166.63c-10.84,8.63-20.97,9-32.57,1.19
	c-40.81-27.46-81.62-54.93-122.43-82.39C252.73,281.12,251.83,280.59,250.63,279.85z"/>
</svg>
