<?xml version="1.0" encoding="utf-8"?>
<!-- Generator: Adobe Illustrator 25.3.0, SVG Export Plug-In . SVG Version: 6.00 Build 0)  -->
<svg version="1.1" id="Layer_1" xmlns="http://www.w3.org/2000/svg" xmlns:xlink="http://www.w3.org/1999/xlink" x="0px" y="0px"
	 viewBox="0 0 222.16 211.83" style="enable-background:new 0 0 222.16 211.83;" xml:space="preserve">
<style type="text/css">
	.st0{fill:#A9A9A9;}
</style>
<g>
	<path class="st0" d="M101.11,158.86c0-2.62,0-4.42,0-6.22c0.02-43.15-0.24-86.3,0.33-129.43c0.11-8.24-3.27-12.25-9.68-15.36
		c-1.2-0.58-2.43-1.07-3.65-1.63C73.05-0.63,57,0.21,41.04,0c-5.06-0.07-6.41,1.54-6.39,6.55c0.19,42.81,0.11,85.63,0.11,128.44
		c0,4.5,0.06,9,0,13.49c-0.03,2.62,0.89,4.12,3.76,4.01c5.82-0.23,11.65-0.31,17.46-0.59C71.15,151.18,86.35,150.12,101.11,158.86z
		 M122.18,158.44c9.11-5.78,18.36-6.92,27.72-6.92c10.81,0,21.62,0.53,32.42,0.99c3.58,0.16,5.09-0.96,5.08-4.76
		c-0.08-47.62-0.08-95.23,0-142.85c0.01-3.75-1.48-4.97-5.06-4.87c-8.15,0.23-16.36-0.29-24.46,0.42
		c-11.67,1.03-22.86,3.93-32.78,10.76c-3.13,2.16-4.25,4.54-4.24,8.25c0.13,43.45,0.1,86.91,0.19,130.36
		C121.06,152.41,121.72,155,122.18,158.44z M15.1,26.74c-2.08,0-3.23,0.06-4.38-0.01C1.63,26.15,0.01,27.66,0,36.91
		C0,85.57-0.01,134.22,0.03,182.88c0,2.31,0.28,4.64,0.69,6.92c0.68,3.8,2.98,5.81,6.97,5.66c6.31-0.23,12.64-0.72,18.94-0.59
		c16.44,0.35,32.87,0.82,49.29,1.62c3.46,0.17,7.07,1.51,10.19,3.13c4.11,2.14,7.83,5.04,11.66,7.69c8.83,6.12,17.69,5.9,26.54,0.15
		c4.05-2.63,7.82-5.72,12.02-8.07c3.42-1.92,7.27-4.3,10.94-4.34c20.98-0.2,41.96,0.04,62.94,0.57c8.86,0.22,11.94-2.06,11.94-10.92
		c0-43.33,0-86.65-0.01-129.98c0-7,0.05-14-0.07-21c-0.09-5.06-2.99-7.77-7.87-7.5c-2.27,0.13-4.52,0.51-7.19,0.82
		c0,2.25,0,4.22,0,6.19c-0.01,38.83-0.02,77.65-0.04,116.48c0,2.5,0.1,5.01-0.14,7.49c-0.86,8.99-7.06,15.06-15.05,15.04
		c-9.66-0.03-19.33-0.1-28.99,0.06c-8.09,0.14-16.25,0.04-24.23,1.14c-3.73,0.51-7.33,3.3-10.59,5.62c-2.79,1.99-4.69,5.3-7.55,7.14
		c-8.63,5.56-17.75,3.3-25.3-6.16c-3.09-3.87-6.59-6.56-11.62-6.83c-6.42-0.34-12.83-0.76-19.25-0.87
		c-11.16-0.19-22.33-0.13-33.49-0.27c-1.79-0.02-3.67-0.31-5.34-0.93c-7.16-2.68-10.21-7.68-10.23-17.06
		c-0.07-40.33-0.07-80.65-0.09-120.98C15.1,31.15,15.1,29.18,15.1,26.74z"/>
	<path class="st0" d="M101.11,158.86c-14.76-8.74-29.96-7.68-45.13-6.96c-5.82,0.28-11.64,0.36-17.46,0.59
		c-2.87,0.11-3.79-1.39-3.76-4.01c0.05-4.5,0-9,0-13.49c0-42.81,0.08-85.63-0.11-128.44C34.62,1.54,35.98-0.06,41.04,0
		C57,0.21,73.05-0.63,88.11,6.23c1.21,0.55,2.45,1.05,3.65,1.63c6.41,3.1,9.79,7.12,9.68,15.36c-0.57,43.14-0.31,86.29-0.33,129.43
		C101.11,154.45,101.11,156.24,101.11,158.86z"/>
	<path class="st0" d="M122.18,158.44c-0.47-3.44-1.12-6.03-1.13-8.62c-0.09-43.45-0.06-86.91-0.19-130.36
		c-0.01-3.71,1.1-6.09,4.24-8.25c9.92-6.83,21.11-9.73,32.78-10.76c8.1-0.71,16.31-0.19,24.46-0.42c3.58-0.1,5.07,1.13,5.06,4.87
		c-0.08,47.62-0.08,95.23,0,142.85c0.01,3.8-1.5,4.92-5.08,4.76c-10.8-0.47-21.61-0.99-32.42-0.99
		C140.55,151.52,131.29,152.66,122.18,158.44z"/>
	<path class="st0" d="M15.1,26.74c0,2.45,0,4.41,0,6.37c0.02,40.33,0.02,80.65,0.09,120.98c0.02,9.38,3.06,14.37,10.23,17.06
		c1.67,0.62,3.55,0.91,5.34,0.93c11.16,0.15,22.33,0.08,33.49,0.27c6.42,0.11,12.84,0.53,19.25,0.87c5.03,0.27,8.53,2.97,11.62,6.83
		c7.56,9.47,16.67,11.72,25.3,6.16c2.86-1.84,4.75-5.15,7.55-7.14c3.26-2.32,6.85-5.11,10.59-5.62c7.98-1.1,16.14-1,24.23-1.14
		c9.66-0.16,19.33-0.1,28.99-0.06c8,0.03,14.19-6.04,15.05-15.04c0.24-2.48,0.14-4.99,0.14-7.49c0.02-38.83,0.03-77.65,0.04-116.48
		c0-1.97,0-3.94,0-6.19c2.67-0.31,4.93-0.69,7.19-0.82c4.88-0.27,7.78,2.43,7.87,7.5c0.12,7,0.07,14,0.07,21
		c0.01,43.33,0.01,86.65,0.01,129.98c0,8.86-3.08,11.14-11.94,10.92c-20.97-0.53-41.96-0.77-62.94-0.57
		c-3.68,0.03-7.52,2.42-10.94,4.34c-4.19,2.35-7.97,5.44-12.02,8.07c-8.85,5.75-17.71,5.97-26.54-0.15
		c-3.83-2.65-7.55-5.55-11.66-7.69c-3.12-1.62-6.73-2.96-10.19-3.13c-16.42-0.8-32.86-1.27-49.29-1.62
		c-6.31-0.13-12.63,0.36-18.94,0.59c-3.99,0.15-6.29-1.86-6.97-5.66c-0.41-2.27-0.69-4.61-0.69-6.92C-0.01,134.22,0,85.57,0,36.91
		c0-9.25,1.62-10.76,10.72-10.18C11.87,26.8,13.02,26.74,15.1,26.74z"/>
</g>
</svg>
