<?xml version="1.0" encoding="utf-8"?>
<!-- Generator: Adobe Illustrator 25.3.0, SVG Export Plug-In . SVG Version: 6.00 Build 0)  -->
<svg version="1.1" id="Layer_1" xmlns="http://www.w3.org/2000/svg" xmlns:xlink="http://www.w3.org/1999/xlink" x="0px" y="0px"
	 viewBox="0 0 543.38 95.63" style="enable-background:new 0 0 543.38 95.63;" xml:space="preserve">
<style type="text/css">
	.st0{fill:#FC8B9D;}
	.st1{fill:#029BDD;}
</style>
<g>
	<g>
		<path class="st0" d="M394.77,29.71c3.42-3.19,6.87-6.32,7.42-10.72c0.09-0.7-0.43-3.63-1.65-5.22c-1.87-2.44-4.71-4.7-4.67-4.67
			c1.23,0.91-6.25-3.7-11.27-4.67c-6.31-1.22-11.55-1.65-16.85,1.12c-5.46,2.85-7.62,8.5-9.82,14.55
			c-2.03,5.58-0.25,9.32,3.02,12.92c2.01,2.21,4.4,4.4,7.7,6.05c0,0-0.69,3.93,0,5.5c0.55,1.24,2.64,0.77,3.85,0.82
			c1.36,0.06,2.94,0.16,4.12-1.1c1.84-1.97,2.11-4.66,3.57-6.05C385.15,33.56,390.65,33.56,394.77,29.71z M399.08,20.7
			c-0.55,1.39-1.46,2.47-2.73,3.27c-0.39,0.25-0.73,0.28-1.15,0.06c-1.26-0.65-2.62-1-4.04-0.95c-2.73,0.1-4.71,1.49-6.14,3.74
			c-0.43,0.67-0.29,1.38,0.29,1.76c0.58,0.38,1.25,0.22,1.73-0.45c0.33-0.47,0.68-0.92,1.1-1.32c1.46-1.39,3.77-1.72,5.58-0.81
			c0.53,0.27,0.34,0.55,0.11,0.87c-1.81,2.46-4.25,3.93-7.22,4.56c-0.16,0.03-0.32,0.05-0.47,0.09c-1.03,0.25-1.84,0.27-2.53-0.87
			c-0.77-1.27-2.19-1.67-3.67-1.66c-0.8,0.01-1.32,0.51-1.32,1.2c0,0.67,0.46,1.15,1.24,1.21c0.68,0.06,1.32,0.15,1.83,0.66
			c0.37,0.38,0.43,0.69-0.05,1.07c-3.11,2.47-5.2,5.65-6.35,9.44c-0.15,0.5-0.4,0.73-0.93,0.7c-0.53-0.03-1.05-0.01-1.58-0.01
			c0,0,0,0,0,0c-0.46,0-0.92,0-1.38,0c-0.89,0-0.93-0.05-0.84-0.95c0.15-1.51,0.32-3.01,0.48-4.52c0.11-0.98,0.06-1.05-0.92-1.16
			c-1.41-0.16-2.75-0.51-3.9-1.4c-0.66-0.51-1.11-1.15-1.32-1.96c-0.12-0.47-0.02-0.78,0.46-0.99c3.14-1.41,6.34-1.02,8.49,1.62
			c0.51,0.63,1.21,0.7,1.75,0.24c0.54-0.45,0.57-1.12,0.09-1.78c-1.9-2.62-5.62-3.87-9.07-3.07c-0.96,0.23-1.89,0.56-2.77,1.02
			c-0.41,0.21-0.75,0.21-1.15-0.04c-3.31-2.03-4.27-6.63-2.03-9.77c0.47-0.66,2.48-1.41,3.22-1.2c0.99,0.28,1.7,2.22,1.18,3.24
			c-0.19,0.37-0.48,0.66-0.75,0.98c-0.48,0.56-0.48,1.2-0.03,1.68c0.46,0.49,1.17,0.53,1.73,0.01c1.43-1.34,2.1-2.92,1.51-4.9
			c-0.06-0.18-0.25-0.41-0.05-0.57c0.18-0.14,0.39,0.04,0.57,0.14c0.93,0.51,1.63,1.25,2.15,2.17c0.13,0.24,0.24,0.5,0.37,0.74
			c0.35,0.62,0.98,0.86,1.57,0.61c0.61-0.26,0.88-0.93,0.61-1.62c-0.77-1.91-2.05-3.35-3.93-4.23c-1.77-0.83-3.63-0.88-5.53-0.68
			c-0.95,0.1-1.12-0.05-0.93-0.99c0.64-3.28,2.56-5.51,5.64-6.77c0.64-0.26,0.76-0.17,0.76,0.54c0,1.79,0.75,3.23,2.02,4.44
			c0.69,0.65,1.43,0.7,1.94,0.15c0.49-0.53,0.43-1.24-0.24-1.87c-1.08-1.04-1.54-2.25-1.14-3.73c0.16-0.6,0.49-1.06,1-1.43
			c2.96-2.1,7.16-2.11,10.16-0.01c0.79,0.55,0.92,0.98,0.57,1.87c-0.19,0.51-0.56,0.89-0.92,1.27c-0.53,0.56-0.56,1.24-0.11,1.73
			c0.46,0.49,1.21,0.49,1.79-0.02c1.13-0.98,1.81-2.2,1.85-3.7c0.02-0.68,0.32-0.88,0.93-0.87c2.1,0.03,3.97,0.66,5.58,2.02
			c0.55,0.46,0.53,0.59-0.13,0.87c-2.04,0.85-3.65,2.18-4.71,4.14c-0.21,0.39-0.47,0.47-0.89,0.43c-1.91-0.17-3.4,0.56-4.43,2.18
			c-0.45,0.72-0.32,1.43,0.27,1.82c0.59,0.38,1.27,0.2,1.76-0.52c0.39-0.58,0.88-0.99,1.6-1.06c0.43-0.04,0.64,0.13,0.62,0.59
			c-0.03,0.64-0.05,1.28-0.03,1.93c0.02,0.81,0.5,1.33,1.18,1.33c0.69,0,1.14-0.51,1.19-1.32c0.03-0.62,0.05-1.24,0.12-1.85
			c0.37-3.01,2.6-5.33,5.59-5.84c0.35-0.06,0.68-0.02,1.01,0.12c1.71,0.71,2.94,1.91,3.69,3.61c0.24,0.56,0.12,0.97-0.32,1.34
			c-0.83,0.7-1.77,0.64-2.74,0.38c-0.45-0.12-0.82-0.39-1.22-0.63c-0.65-0.39-1.33-0.27-1.7,0.28c-0.36,0.53-0.24,1.28,0.34,1.71
			c1.55,1.12,3.24,1.57,5.14,1.08c0.23-0.06,0.5-0.31,0.7-0.08C399.37,20.2,399.17,20.47,399.08,20.7z"/>
		<path class="st0" d="M377.57,10.49c-0.72,0.25-0.96,0.9-0.65,1.82c0.56,1.68,0.2,2.5-1.37,2.84c-0.02,0-0.04,0.01-0.07,0.02
			c-0.93,0.36-1.16,1.3-0.49,2.04c0.17,0.19,0.36,0.35,0.54,0.53c1.93,2.01,1.77,5.02-0.35,6.81c-0.62,0.52-1.35,0.86-2.05,1.25
			c-0.63,0.35-0.83,0.99-0.55,1.58c0.28,0.58,0.92,0.85,1.57,0.57c4.7-1.97,6.52-6.4,4.11-10.6c-0.24-0.42-0.19-0.67,0.16-0.99
			c0.83-0.74,1.2-1.71,1.2-2.76c-0.01-0.91-0.22-1.7-0.58-2.45C378.76,10.54,378.16,10.29,377.57,10.49z"/>
	</g>
	<path class="st0" d="M389,44.56"/>
</g>
<path class="st0" d="M350.7,82.72c-0.03,0-0.06,0-0.09,0c0,3.11-0.02,6.21,0.02,9.32c0.01,0.82-0.08,2,1.07,1.99
	c1.16-0.01,1-1.21,1.01-2.02c0.04-4.04,0.04-8.08,0.04-12.12c0-4.84-0.04-4.74,4.39-3.18c2.03,0.71,2.79,1.82,2.73,3.93
	c-0.12,3.72-0.04,7.46,0.02,11.18c0.01,0.89-0.07,2.17,1.2,2.13c1.17-0.03,0.92-1.26,0.93-2.05c0.04-3.65,0.09-7.3,0-10.95
	c-0.05-2.13,0.81-2.88,2.92-2.8c3.6,0.13,4.09,0.34,4.13,2.89c0.05,3.65,0.01,7.3,0.05,10.95c0.01,0.73-0.15,1.87,0.85,1.9
	c1.22,0.04,1-1.2,1.01-1.97c0.05-3.42,0.01-6.83,0.04-10.25c0.02-3.04,0.34-3.39,3.31-3.41c3.81-0.03,7.61-0.04,11.42,0
	c8.53,0.11,14.17,4.9,15.78,13.26c0.17,0.9,0.03,2.5,1.32,2.3c1.17-0.18,0.67-1.68,0.68-2.64c0-0.38-0.09-0.77-0.16-1.15
	c-1.49-7.64-8.36-13.51-16.15-13.65c-5.9-0.1-11.81,0.14-17.71-0.08c-5.93-0.23-12.03-0.07-16.86-4.66
	c-1.33-1.27-1.9,0.07-1.92,1.29C350.66,76.2,350.7,79.46,350.7,82.72z"/>
<path class="st0" d="M412.8,92.27c-0.19-0.98-0.41-2.12-0.63-3.26c-2.63-13.43-13.03-22.4-26.57-21.97
	c-5.58,0.18-11.18,0.12-16.77-0.02c-4.54-0.11-8.98-0.85-12.85-3.51c-1.08-0.74-2.02-1.68-3.04-2.51c-0.47-0.39-1-0.93-1.6-0.3
	c-0.52,0.55-0.24,1.18,0.15,1.69c0.28,0.37,0.64,0.68,0.97,0.99c3.88,3.62,8.6,5.08,13.77,5.51c7.05,0.58,14.12,0.15,21.18,0.37
	c7.86,0.25,14.23,3.44,18.67,10.1c2.64,3.96,3.93,8.4,4.6,13.06c0.11,0.75,0.09,1.73,1.19,1.65
	C412.78,94.01,412.75,93.15,412.8,92.27z"/>
<path class="st0" d="M422.01,92.14c-1.35-8.5-4.13-16.35-9.9-22.99c-2.88-3.32-6.68-5.56-9.69-8.69c-2.97-3.08-3-3.43-1.24-7.05
	c0.17-0.35,0.22-0.77,0.43-1.08c1.71-2.44,2.61-5.52,5.06-7.32c1.92-1.41,2.19-2.82,1.24-4.77c-1.62-3.35-2.31-6.85-2.11-10.6
	c0.14-2.61,0.51-5.34-0.49-7.85c-0.83-2.09-0.5-3.55,1.38-4.76c1.77-1.15,1.81-2.36,0.27-3.92c-9.71-9.76-21.41-12.94-34.62-9.88
	c-13.36,3.1-21.43,14.4-21.41,29.66c-0.3,4.28,0.67,8.98,2.6,13.45c3.41,7.91,9.18,12.64,18.06,13.31
	c5.13,0.38,10.25,0.14,15.36,0.34c12.69,0.49,22.21,6.07,28.22,17.43c2.5,4.73,4.05,9.73,4.82,15c0.11,0.74,0.18,1.77,1.24,1.63
	C422.29,93.9,422.12,92.87,422.01,92.14z M394.74,57.54c-7.03-6.19-9.47-14.18-8.89-23.24c0.02-0.36,0.05-0.71,0.08-1.07
	c-0.67,0.31-1.4,0.51-2.16,0.56c-0.15,2.89,0,5.88,0.44,8.97c0.65,4.58,2.52,8.78,5.43,12.46c0.6,0.76,1.88,1.46,1.42,2.45
	c-0.47,1.02-1.82,0.36-2.78,0.46c-0.3,0.03-0.62-0.03-1.35-0.09c-3.38,0.81-4.96-1.97-6.72-4.46c-2.02-2.86-3.51-6.1-4.52-9.52
	c-0.44,0.37-1.02,0.61-1.76,0.61c-0.14,0-0.27-0.01-0.4-0.03c1.14,3.72,2.9,7.34,5.38,10.85c0.35,0.49,0.98,0.96,0.73,1.62
	c-0.32,0.81-1.17,0.56-1.84,0.65c-3.71,0.48-6.48-0.79-8.82-3.86c-3.85-5.04-6.15-11.24-6.52-21.04c-0.89-0.54-1.64-1.28-2.19-2.15
	c-0.4,6.81,0.75,13.54,4.22,20.11c0.75,1.43,1.81,2.7,2.68,4.07c0.3,0.47,1.09,0.93,0.53,1.57c-0.39,0.44-1.03,0.04-1.52-0.13
	c-3.65-1.26-6.48-3.55-8.61-6.76c-6.71-10.12-6.3-25.69,1-35.34c2.15-2.84,4.88-4.99,8.31-6.36c0.34-0.26,0.7-0.48,1.08-0.67
	c1.15-1.01,2.65-1.64,4.26-1.64c0.07,0,0.14,0.01,0.2,0.01c1.03-0.69,2.26-1.1,3.57-1.1c0.18,0,0.35,0.01,0.53,0.03
	c2.34-0.63,4.75-0.77,6.42-0.2c1.47,0.5,0.84,1.14,0.19,1.69c0.25-0.03,0.51-0.05,0.77-0.05c0.84,0,1.65,0.17,2.39,0.48
	c3.07-1.42,6.45-0.95,9.87,1.41c1.25,0.86,0.78,1.38-0.1,2.08c-0.19,0.15-0.38,0.31-0.56,0.47c0.78,0.21,1.32,0.72,1.62,1.36
	c0.32-0.22,0.65-0.43,0.99-0.62c2.03-1.16,6.93,1.42,7.2,3.71c0.08,0.65-0.36,0.99-0.78,1.33C392,26.53,390.15,44.66,397.59,57.4
	c0.31,0.52,0.5,1.11,0.93,2.07C396.69,59.27,395.72,58.4,394.74,57.54z M398.65,53.18c-1.3,0-1.41-1.28-1.7-2.2
	c-2.91-9.23-2.09-18.06,2.93-26.42c0.32-0.53,0.62-1.09,1.03-1.55c0.58-0.66,0.98-1.88,2.09-1.48c0.97,0.35,0.98,1.52,1.02,2.44
	c0.07,1.63,0.02,3.26,0.02,4.89c-0.43,3.97,0.28,7.73,2.01,11.31c0.66,1.38,0.57,2.45-0.98,3.27c-3.04,1.62-3.15,5.16-4.81,7.7
	C399.78,51.89,399.83,53.18,398.65,53.18z"/>
<g>
	<g>
		<path class="st1" d="M1.71,63.69c0,8.46,2.94,15.69,8.74,21.49c5.8,5.8,13.03,8.74,21.49,8.74h28.73c0.98,0,1.33-0.35,1.33-1.33
			c0-0.98-0.35-1.33-1.33-1.33H31.94c-7.59,0-14.16-2.71-19.51-8.06c-5.35-5.35-8.06-11.91-8.06-19.51V31.77
			c0-7.59,2.71-14.13,8.07-19.43c5.35-5.29,11.91-7.98,19.5-7.98h28.73c0.98,0,1.33-0.35,1.33-1.33c0-0.98-0.35-1.33-1.33-1.33
			H31.94c-8.35,0-15.55,2.94-21.41,8.74c-5.85,5.8-8.82,12.97-8.82,21.32V63.69z"/>
		<path class="st1" d="M60.67,21.17c0.98,0,1.33-0.35,1.33-1.33c0-0.98-0.35-1.33-1.33-1.33H31.94c-3.72,0-6.82,1.27-9.48,3.87
			c-2.65,2.6-3.94,5.67-3.94,9.39v31.92c0,3.72,1.29,6.82,3.95,9.48c2.66,2.66,5.76,3.95,9.48,3.95h28.73
			c0.98,0,1.33-0.35,1.33-1.33c0-0.98-0.35-1.33-1.33-1.33H31.94c-3.02,0-5.6-1.05-7.66-3.11c-2.06-2.06-3.11-4.64-3.11-7.66V31.77
			c0-3.03,1.05-5.58,3.12-7.59c2.06-2,4.63-3.01,7.65-3.01H60.67z"/>
		<path class="st1" d="M60.67,12.77c0.98,0,1.33-0.35,1.33-1.33c0-0.98-0.35-1.33-1.33-1.33H31.94c-6.01,0-11.21,2.12-15.44,6.31
			c-4.23,4.18-6.38,9.35-6.38,15.35v31.92c0,6.01,2.15,11.21,6.39,15.44c4.24,4.24,9.43,6.39,15.44,6.39h28.73
			c0.98,0,1.33-0.35,1.33-1.33c0-0.98-0.35-1.33-1.33-1.33H31.94c-5.26,0-9.81-1.89-13.54-5.63c-3.73-3.73-5.63-8.29-5.63-13.54
			V31.77c0-5.26,1.89-9.79,5.63-13.46c3.73-3.67,8.29-5.54,13.54-5.54H60.67z"/>
	</g>
	<g>
		<path class="st1" d="M71.94,63.69c0,8.46,2.94,15.69,8.74,21.49c5.8,5.8,13.03,8.74,21.49,8.74h28.73c0.98,0,1.33-0.35,1.33-1.33
			c0-0.98-0.35-1.33-1.33-1.33h-28.73c-7.59,0-14.16-2.71-19.51-8.06c-5.35-5.35-8.06-11.91-8.06-19.51V31.77
			c0-7.59,2.71-14.13,8.07-19.43c5.35-5.29,11.91-7.98,19.5-7.98h28.73c0.98,0,1.33-0.35,1.33-1.33c0-0.98-0.35-1.33-1.33-1.33
			h-28.73c-8.35,0-15.55,2.94-21.41,8.74c-5.85,5.8-8.82,12.97-8.82,21.32V63.69z"/>
		<path class="st1" d="M130.9,12.77c0.98,0,1.33-0.35,1.33-1.33c0-0.98-0.35-1.33-1.33-1.33h-28.73c-6.01,0-11.21,2.12-15.44,6.31
			c-4.23,4.18-6.38,9.35-6.38,15.35v31.92c0,6.01,2.15,11.21,6.39,15.44c4.24,4.24,9.43,6.39,15.44,6.39h28.73
			c0.98,0,1.33-0.35,1.33-1.33c0-0.98-0.35-1.33-1.33-1.33h-28.73c-5.26,0-9.81-1.89-13.54-5.63C84.89,73.5,83,68.95,83,63.69V31.77
			c0-5.26,1.89-9.79,5.63-13.46c3.73-3.67,8.29-5.54,13.54-5.54H130.9z"/>
		<path class="st1" d="M130.9,21.17c0.98,0,1.33-0.35,1.33-1.33c0-0.98-0.35-1.33-1.33-1.33h-28.73c-3.72,0-6.82,1.27-9.48,3.87
			c-2.65,2.6-3.94,5.67-3.94,9.39v31.92c0,3.72,1.29,6.82,3.95,9.48c2.66,2.66,5.76,3.95,9.48,3.95h28.73
			c0.98,0,1.33-0.35,1.33-1.33c0-0.98-0.35-1.33-1.33-1.33h-28.73c-3.02,0-5.6-1.05-7.66-3.11c-2.06-2.06-3.11-4.64-3.11-7.66v-6.4
			h39.5c0.98,0,1.33-0.35,1.33-1.33c0-0.98-0.35-1.33-1.33-1.33H91.4v-5.74h39.5c0.98,0,1.33-0.35,1.33-1.33s-0.35-1.33-1.33-1.33
			H91.4v-5.74h39.5c0.98,0,1.33-0.35,1.33-1.33c0-0.98-0.35-1.33-1.33-1.33H91.4v-6.06c0-3.03,1.05-5.58,3.12-7.59
			c2.06-2,4.63-3.01,7.65-3.01H130.9z"/>
	</g>
	<path class="st1" d="M201.13,93.92c0.98,0,1.33-0.35,1.33-1.33V72.6c0-7.47-2.53-14.12-7.51-19.76l-0.5-0.57l0.5-0.57
		c4.99-5.64,7.51-12.34,7.51-19.93c0-8.35-2.94-15.52-8.74-21.32c-5.8-5.8-12.97-8.74-21.32-8.74c-8.35,0-15.55,2.94-21.41,8.74
		c-5.85,5.8-8.82,12.97-8.82,21.32v60.82c0,0.98,0.35,1.33,1.33,1.33c0.98,0,1.33-0.35,1.33-1.33V31.77
		c0-7.59,2.71-14.13,8.07-19.43c5.35-5.29,11.91-7.98,19.5-7.98c7.48,0,13.99,2.71,19.34,8.06c5.35,5.35,8.06,11.86,8.06,19.34
		c0,7.59-2.68,14.15-7.98,19.5c-5.3,5.35-11.83,8.07-19.43,8.07h-10.77V53.6h10.77c6.01,0,11.17-2.15,15.35-6.38
		c4.18-4.24,6.31-9.43,6.31-15.44c0-5.89-2.15-11.03-6.39-15.27c-4.24-4.24-9.38-6.39-15.27-6.39c-6.01,0-11.21,2.12-15.44,6.31
		c-4.23,4.18-6.38,9.35-6.38,15.35v60.82c0,0.98,0.35,1.33,1.33,1.33c0.98,0,1.33-0.35,1.33-1.33V31.77c0-5.26,1.89-9.79,5.63-13.46
		c3.73-3.67,8.29-5.54,13.54-5.54c5.14,0,9.64,1.89,13.37,5.63c3.73,3.74,5.63,8.24,5.63,13.37c0,5.25-1.86,9.81-5.54,13.54
		c-3.68,3.74-8.21,5.63-13.46,5.63h-10.77V45.2h10.77c3.71,0,6.78-1.29,9.39-3.94c2.6-2.66,3.87-5.76,3.87-9.48
		c0-3.6-1.29-6.65-3.95-9.31c-2.66-2.66-5.7-3.95-9.31-3.95c-3.78,0-7,1.27-9.57,3.79c-2.6,2.54-3.86,5.64-3.86,9.47v60.82
		c0,0.98,0.35,1.33,1.33,1.33c0.98,0,1.33-0.35,1.33-1.33V62h10.77c2.91,0,5.43,1.05,7.49,3.11c2.06,2.07,3.11,4.59,3.11,7.49v19.99
		c0,0.98,0.35,1.33,1.33,1.33c0.98,0,1.33-0.35,1.33-1.33V72.6c0-4.25-1.66-7.66-5.06-10.43l-1.36-1.1l1.7-0.39
		c1.38-0.32,2.73-0.81,4.01-1.44l0.55-0.28l0.44,0.44c3.62,3.63,5.46,8.07,5.46,13.21v19.99c0,0.98,0.35,1.33,1.33,1.33
		c0.98,0,1.33-0.35,1.33-1.33V72.6c0-5.36-1.79-10.15-5.34-14.23l-0.62-0.72l0.78-0.54c1.09-0.77,2.14-1.59,3.11-2.46l0.66-0.58
		l0.57,0.67c4.37,5.18,6.59,11.18,6.59,17.86v19.99C199.8,93.57,200.14,93.92,201.13,93.92z M161.63,31.77
		c0-3.03,1.05-5.58,3.12-7.59c2.06-2,4.63-3.01,7.65-3.01c2.91,0,5.43,1.05,7.49,3.11c2.06,2.07,3.11,4.59,3.11,7.49
		c0,3.02-1.01,5.59-3.01,7.65c-2.01,2.07-4.56,3.12-7.59,3.12h-10.77V31.77z"/>
	<g>
		<path class="st1" d="M271.19,12.77c0.98,0,1.33-0.35,1.33-1.33c0-0.98-0.35-1.33-1.33-1.33h-28.73c-6.01,0-11.21,2.12-15.44,6.31
			c-4.23,4.18-6.38,9.35-6.38,15.35v31.92c0,6.01,2.15,11.21,6.39,15.44c4.24,4.24,9.43,6.39,15.44,6.39h28.73
			c0.98,0,1.33-0.35,1.33-1.33c0-0.98-0.35-1.33-1.33-1.33h-28.73c-5.25,0-9.81-1.89-13.54-5.63c-3.73-3.73-5.63-8.29-5.63-13.54
			V31.77c0-5.26,1.89-9.79,5.63-13.46c3.73-3.67,8.29-5.54,13.54-5.54H271.19z"/>
		<path class="st1" d="M212.23,63.69c0,8.46,2.94,15.69,8.74,21.49c5.8,5.8,13.03,8.74,21.49,8.74h28.73c0.98,0,1.33-0.35,1.33-1.33
			c0-0.98-0.35-1.33-1.33-1.33h-28.73c-7.59,0-14.16-2.71-19.51-8.06c-5.35-5.35-8.06-11.91-8.06-19.51V31.77
			c0-7.59,2.71-14.13,8.07-19.43c5.35-5.29,11.91-7.98,19.5-7.98h28.73c0.98,0,1.33-0.35,1.33-1.33c0-0.98-0.35-1.33-1.33-1.33
			h-28.73c-8.35,0-15.55,2.94-21.41,8.74c-5.85,5.8-8.82,12.97-8.82,21.32V63.69z"/>
		<path class="st1" d="M271.19,21.17c0.98,0,1.33-0.35,1.33-1.33c0-0.98-0.35-1.33-1.33-1.33h-28.73c-3.72,0-6.82,1.27-9.48,3.87
			c-2.65,2.6-3.94,5.67-3.94,9.39v31.92c0,3.72,1.29,6.82,3.95,9.48c2.66,2.66,5.76,3.95,9.48,3.95h28.73
			c0.98,0,1.33-0.35,1.33-1.33c0-0.98-0.35-1.33-1.33-1.33h-28.73c-3.02,0-5.6-1.05-7.66-3.11c-2.06-2.06-3.11-4.64-3.11-7.66v-6.4
			h39.5c0.98,0,1.33-0.35,1.33-1.33c0-0.98-0.35-1.33-1.33-1.33h-39.5v-5.74h39.5c0.98,0,1.33-0.35,1.33-1.33s-0.35-1.33-1.33-1.33
			h-39.5v-5.74h39.5c0.98,0,1.33-0.35,1.33-1.33c0-0.98-0.35-1.33-1.33-1.33h-39.5v-6.06c0-3.03,1.05-5.58,3.12-7.59
			c2.06-2,4.63-3.01,7.65-3.01H271.19z"/>
	</g>
	<path class="st1" d="M338.5,48.34l-0.26-0.44l0.26-0.44c2.82-4.77,4.25-10.05,4.25-15.69c0-8.35-2.94-15.52-8.74-21.32
		c-5.8-5.8-12.97-8.74-21.32-8.74c-8.35,0-15.55,2.94-21.41,8.74c-5.85,5.8-8.82,12.97-8.82,21.32v60.82c0,0.98,0.35,1.33,1.33,1.33
		h28.9c8.35,0,15.52-2.97,21.32-8.82c5.8-5.86,8.74-13.06,8.74-21.41C342.74,58.17,341.32,53,338.5,48.34z M332.11,83.2
		c-5.3,5.35-11.83,8.07-19.43,8.07h-27.57V31.77c0-7.59,2.71-14.13,8.07-19.43c5.35-5.29,11.91-7.98,19.5-7.98
		c7.48,0,13.99,2.71,19.34,8.06c5.35,5.35,8.06,11.86,8.06,19.34c0,7.59-2.68,14.15-7.98,19.5c-5.3,5.35-11.83,8.07-19.43,8.07
		h-10.77V53.6h10.77c6.01,0,11.17-2.15,15.35-6.38c4.18-4.24,6.31-9.43,6.31-15.44c0-5.89-2.15-11.03-6.39-15.27
		c-4.24-4.24-9.38-6.39-15.27-6.39c-6.01,0-11.21,2.12-15.45,6.31c-4.23,4.18-6.38,9.34-6.38,15.35v52.42
		c0,0.98,0.35,1.33,1.33,1.33h20.5c6.01,0,11.17-2.15,15.35-6.38c4.18-4.24,6.31-9.43,6.31-15.45c0-2.89-0.6-5.78-1.78-8.57
		l-0.25-0.6l0.51-0.4c1.06-0.85,2.04-1.82,2.89-2.89l0.84-1.04l0.6,1.2c1.95,3.91,2.95,8.05,2.95,12.31
		C340.09,71.28,337.4,77.84,332.11,83.2z M312.69,45.2c3.71,0,6.78-1.29,9.39-3.94c2.6-2.66,3.87-5.76,3.87-9.48
		c0-3.6-1.29-6.65-3.95-9.31c-2.62-2.62-5.76-3.95-9.31-3.95c-3.78,0-7,1.27-9.57,3.79c-2.6,2.54-3.86,5.64-3.86,9.47v44.02
		c0,0.98,0.35,1.33,1.33,1.33h12.1c3.71,0,6.78-1.29,9.39-3.94c2.6-2.66,3.87-5.76,3.87-9.48c0-1.24-0.21-2.51-0.63-3.76l-0.25-0.75
		l0.73-0.3c1.28-0.53,2.47-1.18,3.53-1.93l0.94-0.66l0.36,1.09c0.7,2.1,1.05,4.22,1.05,6.32c0,5.25-1.86,9.8-5.54,13.54
		c-3.68,3.74-8.21,5.63-13.46,5.63h-19.17V31.77c0-5.26,1.89-9.79,5.63-13.46c3.73-3.67,8.29-5.54,13.54-5.54
		c5.14,0,9.64,1.89,13.37,5.63c3.73,3.74,5.63,8.24,5.63,13.37c0,5.25-1.86,9.8-5.54,13.54c-3.68,3.74-8.21,5.63-13.46,5.63h-10.77
		V45.2H312.69z M301.92,42.54V31.77c0-3.03,1.05-5.58,3.12-7.59c2.06-2,4.64-3.01,7.65-3.01c2.91,0,5.43,1.05,7.49,3.11
		c2.06,2.06,3.11,4.59,3.11,7.49c0,3.02-1.01,5.59-3.01,7.65c-2.01,2.07-4.56,3.12-7.59,3.12H301.92z M301.92,62h10.77
		c3.14,0,6.21-0.49,9.14-1.47l0.85-0.28l0.24,0.86c0.24,0.86,0.37,1.73,0.37,2.59c0,3.02-1.01,5.59-3.01,7.65
		c-2.01,2.07-4.56,3.12-7.59,3.12h-10.77V62z"/>
	<g>
		<path class="st1" d="M453.15,93.92h16.97c0.98,0,1.33-0.35,1.33-1.33c0-0.98-0.35-1.33-1.33-1.33h-16.97
			c-7.59,0-14.16-2.71-19.51-8.06c-5.35-5.35-8.06-11.91-8.06-19.51V3.04c0-0.98-0.35-1.33-1.33-1.33c-0.98,0-1.33,0.35-1.33,1.33
			v60.65c0,8.46,2.94,15.69,8.74,21.49C437.45,90.98,444.68,93.92,453.15,93.92z"/>
		<path class="st1" d="M441.05,1.71c-0.98,0-1.33,0.35-1.33,1.33v60.65c0,3.72,1.29,6.82,3.95,9.48c2.66,2.66,5.75,3.95,9.48,3.95
			h16.97c0.98,0,1.33-0.35,1.33-1.33c0-0.98-0.35-1.33-1.33-1.33h-16.97c-3.02,0-5.6-1.05-7.66-3.11c-2.06-2.06-3.11-4.64-3.11-7.66
			V3.04C442.38,2.06,442.03,1.71,441.05,1.71z"/>
		<path class="st1" d="M432.65,1.71c-0.98,0-1.33,0.35-1.33,1.33v60.65c0,6.01,2.15,11.21,6.39,15.44
			c4.24,4.24,9.43,6.39,15.44,6.39h16.97c0.98,0,1.33-0.35,1.33-1.33c0-0.98-0.35-1.33-1.33-1.33h-16.97
			c-5.26,0-9.81-1.89-13.54-5.63c-3.73-3.73-5.63-8.29-5.63-13.54V3.04C433.98,2.06,433.63,1.71,432.65,1.71z"/>
	</g>
	<g>
		<path class="st1" d="M481.39,63.69c0,8.46,2.94,15.69,8.74,21.49c5.8,5.8,13.03,8.74,21.49,8.74h28.73c0.98,0,1.33-0.35,1.33-1.33
			c0-0.98-0.35-1.33-1.33-1.33h-28.73c-7.59,0-14.16-2.71-19.51-8.06c-5.35-5.35-8.06-11.91-8.06-19.51V31.77
			c0-7.59,2.71-14.13,8.07-19.43c5.35-5.29,11.91-7.98,19.5-7.98h28.73c0.98,0,1.33-0.35,1.33-1.33c0-0.98-0.35-1.33-1.33-1.33
			h-28.73c-8.35,0-15.55,2.94-21.41,8.74c-5.85,5.8-8.82,12.97-8.82,21.32V63.69z"/>
		<path class="st1" d="M540.34,21.17c0.98,0,1.33-0.35,1.33-1.33c0-0.98-0.35-1.33-1.33-1.33h-28.73c-3.72,0-6.82,1.27-9.48,3.87
			c-2.65,2.6-3.94,5.67-3.94,9.39v31.92c0,3.72,1.29,6.82,3.95,9.48c2.66,2.66,5.75,3.95,9.48,3.95h28.73
			c0.98,0,1.33-0.35,1.33-1.33c0-0.98-0.35-1.33-1.33-1.33h-28.73c-3.02,0-5.6-1.05-7.66-3.11c-2.06-2.06-3.11-4.64-3.11-7.66v-6.4
			h39.5c0.98,0,1.33-0.35,1.33-1.33c0-0.98-0.35-1.33-1.33-1.33h-39.5v-5.74h39.5c0.98,0,1.33-0.35,1.33-1.33s-0.35-1.33-1.33-1.33
			h-39.5v-5.74h39.5c0.98,0,1.33-0.35,1.33-1.33c0-0.98-0.35-1.33-1.33-1.33h-39.5v-6.06c0-3.03,1.05-5.58,3.12-7.59
			c2.06-2,4.64-3.01,7.65-3.01H540.34z"/>
		<path class="st1" d="M540.34,12.77c0.98,0,1.33-0.35,1.33-1.33c0-0.98-0.35-1.33-1.33-1.33h-28.73c-6.01,0-11.21,2.12-15.45,6.31
			c-4.23,4.18-6.38,9.34-6.38,15.35v31.92c0,6.01,2.15,11.21,6.39,15.44c4.24,4.24,9.43,6.39,15.44,6.39h28.73
			c0.98,0,1.33-0.35,1.33-1.33c0-0.98-0.35-1.33-1.33-1.33h-28.73c-5.26,0-9.81-1.89-13.54-5.63c-3.73-3.73-5.63-8.29-5.63-13.54
			V31.77c0-5.26,1.89-9.79,5.63-13.46c3.73-3.67,8.29-5.54,13.54-5.54H540.34z"/>
	</g>
</g>
</svg>
