<?xml version="1.0" encoding="utf-8"?>
<!-- Generator: Adobe Illustrator 25.3.0, SVG Export Plug-In . SVG Version: 6.00 Build 0)  -->
<svg version="1.1" id="Layer_1" xmlns="http://www.w3.org/2000/svg" xmlns:xlink="http://www.w3.org/1999/xlink" x="0px" y="0px"
	 viewBox="0 0 573.6 189.8" style="enable-background:new 0 0 573.6 189.8;" xml:space="preserve">
<style type="text/css">
	.st0{fill:#FC8B9D;}
	.st1{fill:#029BDD;}
	.st2{fill:#059CDD;}
</style>
<g>
	<path class="st0" d="M304.9,77c1.2,0,7.1,0.3,9.9,3.6c1.4,1.6,1.8,3.7,1.4,6.5l3.9,0.7c0.7-4-0.1-7.3-2.3-9.8
		c-0.3-0.3-0.6-0.6-0.9-0.9h7c1.2,0.1,8.1-0.1,9.7-12.3l-4-0.5c-1.2,9-5.3,8.9-5.4,8.9L305,73c-0.2,0-0.3,0-0.4,0l0,4H304.9z"/>
	<path class="st0" d="M337.9,118.6l3.2-2.5c-4-5.1-7.8-6-10.3-5.8c-0.9-6-5.3-8.4-7.7-8.7l-0.6,4c0.2,0,4.6,0.8,4.6,7.2
		c0,5.9-5.1,7-6,7.2h-2.3c-1.4-0.2-2.6-0.6-3.6-1.5c-2.5-2.1-2.8-5.8-2.8-5.9l-2,0.1l-2,0.1c0,0.2,0.3,4,2.7,7.1h-6.3v4h13.8
		c0.4,0,0.9,0.1,1.3,0.1c0.4,0,0.9,0,1.4-0.1h0.1l0.1,0c3.1-0.4,8.8-2.9,9.5-9.6C332.2,114.2,334.9,114.6,337.9,118.6z"/>
	<path class="st0" d="M317.7,126.6l-2-0.1l-2-0.1c-0.1,2.8,1.6,8.4,9.1,9.9l0.8-3.9C317.7,131.2,317.7,127,317.7,126.6z"/>
	<path class="st0" d="M333.7,122l-4-0.1c-0.1,8.6,12.7,10.3,13.2,10.4l0.5-4C343.3,128.4,333.6,127,333.7,122z"/>
	<path class="st0" d="M344,80.1c4.7-3.6,5.8-11.4,5.8-11.7l-4-0.5c0,0-0.4,3-1.8,5.8c-2.4,4.8-5.4,4.4-6.4,4.3l-0.5,4
		c0.5,0.1,0.9,0.1,1.4,0.1C340.5,82,342.4,81.4,344,80.1z"/>
	<path class="st0" d="M316.1,70.1l1.4-3.8c-1.9-0.7-3.1-1.7-3.7-2.9c-0.8-1.7-0.1-3.5-0.1-3.5l-1.9-0.7l-1.9-0.8
		c-0.1,0.3-1.3,3.3,0.1,6.5C311.1,67.3,313.2,69,316.1,70.1z"/>
	<path class="st0" d="M315.7,94.9l-1.7-1c-0.1,0.2-3.2,5.8-1.5,11.7c1.1,3.6,3.7,6.4,7.7,8.5l1.8-3.6c-3-1.5-4.9-3.6-5.7-6
		c-1.3-4.2,1.1-8.5,1.1-8.6L315.7,94.9z"/>
	<path class="st0" d="M337.8,103.3l-0.7,3.9c1.1,0.2,2.1,0.3,3.1,0.3c6.6,0,8.6-4.6,8.6-4.8l-3.7-1.6
		C344.9,101.5,343.4,104.3,337.8,103.3z"/>
</g>
<g>
	<path class="st1" d="M5.4,96.5c0-24.2,17.3-41.3,41.8-41.3c12.9,0,20.7,4.1,24.2,6.4c0.7,0.6,0.8,1.1,0.3,1.8l-1.4,2.3
		c-0.5,0.7-1,0.7-1.7,0.2c-3.1-2.1-9.9-5.7-20.9-5.7c-21.8,0-36.9,14.6-36.9,36.1c0,21.2,14.6,36,36.9,36c11.1,0,17.6-3.3,21-5.4
		c0.8-0.3,1.5-0.3,1.8,0.5l1.3,2.2c0.3,0.7,0.2,1.4-0.8,1.9c-3.6,2.2-11.3,5.8-23.8,5.8C22.1,137.4,5.4,120.3,5.4,96.5z"/>
	<path class="st1" d="M93.7,61.1V93h38.2c0.7,0,1.3,0.5,1.3,1.3v2.5c0,0.8-0.5,1.3-1.3,1.3H93.7v33.4h43.9c0.7,0,1.1,0.5,1.1,1.1
		v2.5c0,0.8-0.5,1.3-1.1,1.3h-48c-0.7,0-1.3-0.5-1.3-1.3V57.5c0-0.8,0.5-1.3,1.3-1.3h48c0.7,0,1.1,0.5,1.1,1.3V60
		c0,0.7-0.5,1.1-1.1,1.1H93.7z"/>
	<path class="st1" d="M211.8,136.4h-3.9c-0.7,0-1.3-0.3-1.6-0.8L188,108.2c-2.3,0.3-4.8,0.6-7.4,0.6h-18.4v26.3
		c0,0.8-0.5,1.3-1.3,1.3h-2.9c-0.8,0-1.3-0.5-1.3-1.3V57.5c0-0.8,0.5-1.3,1.3-1.3h23.5c17.4,0,30.1,7.9,30.1,26.2
		c0,12.2-6.7,20.7-17.9,24.4l18.8,28C213.3,135.8,212.9,136.4,211.8,136.4z M180.6,103.9c15.6,0,25.5-8.2,25.5-21.4
		c0-14.8-10.7-21.3-24.5-21.3h-19.4v42.7H180.6z"/>
	<path class="st1" d="M237.7,61.1V93h38.2c0.7,0,1.3,0.5,1.3,1.3v2.5c0,0.8-0.5,1.3-1.3,1.3h-38.2v33.4h43.9c0.7,0,1.1,0.5,1.1,1.1
		v2.5c0,0.8-0.5,1.3-1.1,1.3h-48c-0.7,0-1.3-0.5-1.3-1.3V57.5c0-0.8,0.5-1.3,1.3-1.3h48c0.7,0,1.1,0.5,1.1,1.3V60
		c0,0.7-0.5,1.1-1.1,1.1H237.7z"/>
	<path class="st0" d="M355.9,113.6c0,14.2-10.3,22.8-27.5,22.8h-26.3c-0.7,0-1.3-0.5-1.3-1.3V57.5c0-0.8,0.5-1.3,1.3-1.3h23.3
		c19.8,0,28.3,8.7,28.3,21.3c0,8.5-5.6,14.9-12.7,17.7C350.1,97.8,355.9,105,355.9,113.6z M325.3,61.1h-19v31.8h23.9
		c10.6,0,17.9-5.9,17.9-14.9C348.1,68,341,61.1,325.3,61.1z M350.3,113.3c0-7.4-6-15.4-20.2-15.4h-23.9v33.5h22
		C342,131.5,350.3,124.7,350.3,113.3z"/>
	<path class="st2" d="M430.1,136.4h-3.9c-0.7,0-1.3-0.3-1.6-0.8l-18.4-27.4c-2.3,0.3-4.8,0.6-7.4,0.6h-18.4v26.3
		c0,0.8-0.5,1.3-1.3,1.3h-2.8c-0.8,0-1.3-0.5-1.3-1.3V57.5c0-0.8,0.5-1.3,1.3-1.3h23.5c17.4,0,30.1,7.9,30.1,26.2
		c0,12.2-6.7,20.7-17.9,24.4l18.8,28C431.6,135.8,431.2,136.4,430.1,136.4z M398.9,103.9c15.6,0,25.5-8.2,25.5-21.4
		c0-14.8-10.7-21.3-24.5-21.3h-19.4v42.7H398.9z"/>
	<path class="st2" d="M501,132.6v2.5c0,0.8-0.5,1.3-1.3,1.3h-47.9c-0.7,0-1.3-0.5-1.3-1.3V57.5c0-0.8,0.5-1.3,1.3-1.3h2.8
		c0.8,0,1.3,0.5,1.3,1.3v74h43.8C500.5,131.5,501,131.9,501,132.6z"/>
	<path class="st2" d="M520.1,61.1V93h38.2c0.7,0,1.3,0.5,1.3,1.3v2.5c0,0.8-0.5,1.3-1.3,1.3h-38.2v33.4H564c0.7,0,1.1,0.5,1.1,1.1
		v2.5c0,0.8-0.5,1.3-1.1,1.3h-48c-0.7,0-1.3-0.5-1.3-1.3V57.5c0-0.8,0.5-1.3,1.3-1.3h48c0.7,0,1.1,0.5,1.1,1.3V60
		c0,0.7-0.5,1.1-1.1,1.1H520.1z"/>
</g>
</svg>
