<?xml version="1.0" encoding="utf-8"?>
<!-- Generator: Adobe Illustrator 25.3.0, SVG Export Plug-In . SVG Version: 6.00 Build 0)  -->
<svg version="1.1" id="Layer_1" xmlns="http://www.w3.org/2000/svg" xmlns:xlink="http://www.w3.org/1999/xlink" x="0px" y="0px"
	 viewBox="0 0 552.4 90.6" style="enable-background:new 0 0 552.4 90.6;" xml:space="preserve">
<style type="text/css">
	.st0{fill:#029BDD;}
	.st1{fill:#FC8B9D;}
</style>
<g>
	<path class="st0" d="M0,45.5C0,18.9,19.1,0,46.1,0C60.3,0,69,4.5,72.8,7c0.8,0.6,0.9,1.3,0.4,2l-1.5,2.5c-0.5,0.8-1.1,0.8-1.9,0.3
		c-3.4-2.3-10.9-6.3-23-6.3C22.7,5.5,6,21.6,6,45.4c0,23.4,16.1,39.7,40.7,39.7c12.2,0,19.4-3.6,23.1-5.9c0.9-0.4,1.6-0.4,2,0.5
		l1.4,2.4c0.4,0.8,0.3,1.5-0.9,2.1c-4,2.4-12.4,6.4-26.3,6.4C18.5,90.6,0,71.8,0,45.5z"/>
	<path class="st0" d="M88.6,6.5v35.2h42.1c0.8,0,1.4,0.5,1.4,1.4v2.8c0,0.9-0.5,1.4-1.4,1.4H88.6v36.8H137c0.8,0,1.3,0.5,1.3,1.3
		v2.8c0,0.9-0.5,1.4-1.3,1.4H84.1c-0.8,0-1.4-0.5-1.4-1.4V2.5c0-0.9,0.5-1.4,1.4-1.4H137c0.8,0,1.3,0.5,1.3,1.4v2.8
		c0,0.8-0.5,1.3-1.3,1.3H88.6z"/>
	<path class="st0" d="M210,89.5h-4.3c-0.8,0-1.4-0.4-1.8-0.9l-20.2-30.2c-2.5,0.4-5.3,0.6-8.2,0.6h-20.2v29c0,0.9-0.5,1.4-1.4,1.4
		h-3.1c-0.9,0-1.4-0.5-1.4-1.4V2.5c0-0.9,0.5-1.4,1.4-1.4h25.9c19.2,0,33.2,8.7,33.2,28.9c0,13.4-7.4,22.9-19.7,26.9l20.7,30.9
		C211.7,88.9,211.2,89.5,210,89.5z M175.6,53.7c17.2,0,28.2-9,28.2-23.6c0-16.3-11.8-23.5-27-23.5h-21.4v47.1H175.6z"/>
	<path class="st0" d="M229.8,6.5v35.2h42.1c0.8,0,1.4,0.5,1.4,1.4v2.8c0,0.9-0.5,1.4-1.4,1.4h-42.1v36.8h48.4c0.8,0,1.3,0.5,1.3,1.3
		v2.8c0,0.9-0.5,1.4-1.3,1.4h-52.9c-0.8,0-1.4-0.5-1.4-1.4V2.5c0-0.9,0.5-1.4,1.4-1.4h52.9c0.8,0,1.3,0.5,1.3,1.4v2.8
		c0,0.8-0.5,1.3-1.3,1.3H229.8z"/>
	<path class="st0" d="M351.3,64.4c0,15.7-11.3,25.1-30.3,25.1h-29c-0.8,0-1.4-0.5-1.4-1.4V2.5c0-0.9,0.5-1.4,1.4-1.4h25.6
		c21.9,0,31.2,9.6,31.2,23.5c0,9.4-6.2,16.5-14,19.5C344.9,47,351.3,54.9,351.3,64.4z M317.5,6.5h-21v35.1h26.4
		c11.7,0,19.7-6.5,19.7-16.5C342.6,14.1,334.8,6.5,317.5,6.5z M345.1,64.1c0-8.2-6.7-17-22.2-17h-26.4v37h24.3
		C336,84.1,345.1,76.7,345.1,64.1z"/>
	<path class="st0" d="M490.6,85.3v2.8c0,0.9-0.5,1.4-1.4,1.4h-52.8c-0.8,0-1.4-0.5-1.4-1.4V2.5c0-0.9,0.5-1.4,1.4-1.4h3.1
		c0.9,0,1.4,0.5,1.4,1.4v81.6h48.3C489.9,84.1,490.6,84.6,490.6,85.3z"/>
	<path class="st0" d="M502.8,6.5v35.2h42.1c0.8,0,1.4,0.5,1.4,1.4v2.8c0,0.9-0.5,1.4-1.4,1.4h-42.1v36.8h48.4c0.8,0,1.3,0.5,1.3,1.3
		v2.8c0,0.9-0.5,1.4-1.3,1.4h-52.9c-0.8,0-1.4-0.5-1.4-1.4V2.5c0-0.9,0.5-1.4,1.4-1.4h52.9c0.8,0,1.3,0.5,1.3,1.4v2.8
		c0,0.8-0.5,1.3-1.3,1.3H502.8z"/>
</g>
<g>
	<g>
		<path class="st1" d="M368.2,90.1h-3.8c-0.5,0-0.8-0.4-0.8-0.8l-1-87.1c0-0.5,0.4-0.8,0.8-0.8h33.2c1.5-0.1,15.4-0.6,19.7,8.5
			c0.1,0.2,0.2,0.3,0.3,0.4c2.9,1.6,5.3,4.2,6.3,7.3c0.8,2.2,1.2,5.4-0.5,9.3c-0.1,0.2-0.1,0.4,0,0.6c2,4.6,3,12.5-3.6,19
			c-0.1,0.1-0.2,0.2-0.2,0.4c-2.3,8.7-5.1,11.1-18.8,11.6c-10.3,0.4-24.7,0.2-31,0.1c-0.5,0-0.8,0.4-0.8,0.9l0.9,30
			C369,89.7,368.6,90.1,368.2,90.1z M368,52.1c0,0.5,0.4,0.8,0.8,0.8c6.2,0.1,20.6,0.3,30.8-0.1c11.9-0.4,12.2-1.4,13.9-8.4l0.2-0.8
			l0.6-0.6c7.1-6.3,2.7-14.2,2.5-14.5l-0.6-1c-0.1-0.3-0.2-0.6,0-0.8l0.5-1c1.3-2.3,1.6-4.5,0.9-6.5c-0.7-2-2.4-3.7-4.5-4.6
			l-0.8-0.3c-0.2-0.1-0.4-0.3-0.5-0.5l-0.3-0.8c-2.3-6.8-14.7-6.1-14.8-6.1l-0.2,0h-27.8c-0.5,0-0.8,0.4-0.8,0.8V52.1z"/>
	</g>
	<g>
		<g>
			<path class="st1" d="M404.6,33.1l2.3-1.8c0.4-0.3,0.5-0.9,0.1-1.3c-4-4.8-7.8-6-10.6-6c-0.4,0-0.8-0.3-0.9-0.7
				c-1.1-5.7-5.1-8.3-7.8-9.1c-0.5-0.1-1,0.2-1.1,0.7l-0.4,2.9c-0.1,0.4,0.2,0.8,0.6,1c1.4,0.5,4.6,2.3,4.6,8.1c0,6.6-5.6,8-6.8,8.3
				c-0.1,0-0.1,0-0.2,0h-2.5c-0.1,0-0.1,0-0.2,0c-1.6-0.2-2.9-0.7-4.1-1.7c-2.2-1.8-2.9-4.7-3.1-6c-0.1-0.4-0.5-0.8-0.9-0.7
				l-1.5,0.1l-1.3,0.1c-0.5,0-0.9,0.5-0.8,1c0.2,1.3,0.7,3.6,2.1,5.8c0.4,0.6-0.1,1.4-0.8,1.4h-4.7c-0.5,0-0.9,0.4-0.9,0.9v2.8
				c0,0.5,0.4,0.9,0.9,0.9h15c0.5,0,1,0.1,1.5,0.1s1,0,1.6-0.1h0.1h0.1c3.5-0.4,9.7-3.2,10.9-10.3c0.1-0.5,0.5-0.8,1-0.8
				c1.5,0.1,3.9,1,6.6,4.2C403.6,33.3,404.2,33.4,404.6,33.1z"/>
		</g>
		<g>
			<path class="st1" d="M375.2,3.2l-0.8-0.5c-0.6-0.4-1.5-0.1-1.8,0.6c-1,2.2-2.6,7.1-1.1,12.2c1.2,3.8,3.8,6.8,7.7,9.2
				c0.6,0.4,1.4,0.2,1.8-0.5l1-1.9c0.3-0.6,0.1-1.3-0.5-1.6c-2.9-1.7-4.7-3.9-5.6-6.4c-1.1-3.6,0.1-7.3,0.8-9c0.2-0.6,0-1.2-0.5-1.5
				L375.2,3.2z"/>
		</g>
		<g>
			<path class="st1" d="M404.6,14.9l-0.4,2.5c-0.1,0.6,0.3,1.1,0.9,1.2c0.9,0.1,1.7,0.2,2.5,0.2c5.6,0,8.3-2.8,9.4-4.5
				c0.4-0.5,0.1-1.3-0.5-1.5l-2.4-1.1c-0.4-0.2-0.9-0.1-1.2,0.3c-0.8,1-2.7,2.6-7.1,2C405.2,14,404.7,14.4,404.6,14.9z"/>
		</g>
	</g>
	<g>
		<path class="st1" d="M418.9,90.1l-22.4-32.8c-0.1-0.1,0-0.2,0.1-0.3l4.2-2.9c0.1-0.1,0.2,0,0.3,0.1l24.3,34.5
			c0.4,0.6,0,1.4-0.7,1.4l-5.5,0.1C419,90.2,418.9,90.2,418.9,90.1z"/>
	</g>
	<g>
		<path class="st1" d="M393.3,58.1c-7.8-1.8-9.8-8.5-9.8-12.7c0-0.6,0.5-1.1,1.1-1l3.4,0.3c0.5,0,0.9,0.5,0.9,1
			c0.1,1.9,0.8,5.9,5.3,7c0.5,0.1,0.8,0.6,0.8,1.2l-0.5,3.4C394.5,57.9,393.9,58.3,393.3,58.1z"/>
	</g>
	<g>
		<path class="st1" d="M398.8,39.1c-0.8,0-1.3,0.7-1.1,1.4c0.3,1.1,1,2.7,2.6,4.3c2.9,2.7,7.7,4.1,14.1,4.1c0.3,0,0.5,0,0.8,0
			c1.2,0,2.2-1,2.1-2.3l-0.1-1.3c-0.1-1.1-1-2-2.2-2c-8.2,0.1-11.2-2.2-11.9-3.9c-0.1-0.4-0.5-0.6-0.9-0.6L398.8,39.1z"/>
	</g>
</g>
</svg>
